<svg width="18" height="18" viewBox="0 0 18 18" fill="none" xmlns="http://www.w3.org/2000/svg">
<g clip-path="url(#clip0_758_2082)">
<path d="M16.4735 7.07162L9.49043 7.07129C9.18207 7.07129 8.93213 7.3212 8.93213 7.62956V9.86034C8.93213 10.1686 9.18207 10.4186 9.4904 10.4186H13.4229C12.9922 11.5361 12.1885 12.472 11.1631 13.0667L12.8399 15.9693C15.5297 14.4137 17.1199 11.6843 17.1199 8.62881C17.1199 8.19375 17.0879 7.88275 17.0237 7.53256C16.975 7.2665 16.744 7.07162 16.4735 7.07162Z" fill="#167EE6"/>
<path d="M8.55977 13.7704C6.63531 13.7704 4.95528 12.7189 4.05297 11.163L1.15039 12.836C2.62749 15.396 5.39458 17.12 8.55977 17.12C10.1125 17.12 11.5776 16.7019 12.8398 15.9733V15.9693L11.163 13.0666C10.396 13.5115 9.50843 13.7704 8.55977 13.7704Z" fill="#12B347"/>
<path d="M12.8401 15.9733V15.9694L11.1633 13.0667C10.3963 13.5115 9.50878 13.7704 8.56006 13.7704V17.12C10.1128 17.12 11.578 16.7019 12.8401 15.9733Z" fill="#0F993E"/>
<path d="M3.34957 8.55996C3.34957 7.61137 3.60844 6.7239 4.05319 5.95695L1.15062 4.28394C0.418036 5.54209 0 7.00324 0 8.55996C0 10.1167 0.418036 11.5778 1.15062 12.836L4.05319 11.163C3.60844 10.396 3.34957 9.50854 3.34957 8.55996Z" fill="#FFD500"/>
<path d="M8.55977 3.34957C9.81472 3.34957 10.9674 3.79549 11.8678 4.53723C12.0899 4.7202 12.4128 4.707 12.6162 4.50353L14.1968 2.92294C14.4277 2.69209 14.4112 2.31421 14.1646 2.10028C12.6561 0.791566 10.6933 0 8.55977 0C5.39458 0 2.62749 1.72394 1.15039 4.28398L4.05297 5.95699C4.95528 4.40104 6.63531 3.34957 8.55977 3.34957Z" fill="#FF4B26"/>
<path d="M11.8681 4.53723C12.0902 4.7202 12.4131 4.707 12.6165 4.50353L14.1971 2.92294C14.4279 2.69209 14.4115 2.31421 14.1649 2.10028C12.6564 0.791532 10.6936 0 8.56006 0V3.34957C9.81497 3.34957 10.9677 3.79549 11.8681 4.53723Z" fill="#D93F21"/>
</g>
<defs>
<clipPath id="clip0_758_2082">
<rect width="17.12" height="17.12" fill="white"/>
</clipPath>
</defs>
</svg>
